<svg width="640" height="480" viewBox="0 0 640 480" fill="none" xmlns="http://www.w3.org/2000/svg">
  <defs>
    <linearGradient id="boardFrame" x1="0" y1="0" x2="1" y2="1">
      <stop offset="0%" stop-color="#FFFFFF"/>
      <stop offset="100%" stop-color="#F1ECE7"/>
    </linearGradient>
    <pattern id="boardPattern" width="80" height="80" patternUnits="userSpaceOnUse">
      <rect width="80" height="80" fill="#F1ECE7"/>
      <rect width="40" height="40" fill="#111111"/>
      <rect x="40" y="40" width="40" height="40" fill="#111111"/>
    </pattern>
  </defs>
  <ellipse cx="340" cy="390" rx="210" ry="38" fill="#000000" opacity="0.08"/>
  <g transform="translate(60 60)">
    <rect x="0" y="0" width="520" height="360" rx="28" fill="url(#boardFrame)" stroke="#E5DDD6" stroke-width="3"/>
    <rect x="24" y="24" width="472" height="312" rx="18" fill="url(#boardPattern)"/>
  </g>
  <g transform="translate(120 140)">
    <rect x="0" y="100" width="90" height="22" rx="10" fill="#111111"/>
    <rect x="8" y="70" width="74" height="36" rx="12" fill="#111111"/>
    <rect x="20" y="28" width="50" height="50" rx="20" fill="#111111"/>
    <rect x="35" y="0" width="20" height="26" rx="6" fill="#111111"/>
  </g>
  <g transform="translate(370 130)">
    <circle cx="45" cy="20" r="20" fill="#F2B632"/>
    <rect x="18" y="36" width="54" height="52" rx="20" fill="#F2B632"/>
    <rect x="6" y="78" width="78" height="20" rx="10" fill="#111111"/>
  </g>
  <g transform="translate(260 250)">
    <circle cx="36" cy="24" r="20" fill="#C62828"/>
    <rect x="12" y="40" width="48" height="58" rx="18" fill="#C62828"/>
    <rect x="0" y="86" width="72" height="18" rx="9" fill="#111111"/>
  </g>
</svg>
